# xmcd
# 
# Track frame offsets:
#     150
#     49352
#     68869
#     92057
#     119349
#     140717
#     172972
#     199241
#     222391
#     237961
# 
# Disc length: 3557
# 
# Revision: 1
# Processed by: cddbd v1.5.2PL0 Copyright (c) Steve Scherf et al.
# Submitted via: BonkEnc v1.0.8
# 
DISCID=9a0de30a
DTITLE=B. B. King and His Orchestra - Live at the Palais de Congress, Cannes, France [January 1983]
DYEAR=2003
DGENRE=Blues
TTITLE0=B. B.'s Theme
TTITLE1=Why I Sing the Blues
TTITLE2=Darling You Know I Love You
TTITLE3=Sweet Little Angle
TTITLE4=Everyday I Have the Blues
TTITLE5=All Over Again
TTITLE6=Guess Who
TTITLE7=The Thrill is Gone
TTITLE8=Caldonia
TTITLE9=Paying the Cost to be the Boss
EXTD=
EXTT0=
EXTT1=
EXTT2=
EXTT3=
EXTT4=
EXTT5=
EXTT6=
EXTT7=
EXTT8=
EXTT9=
PLAYORDER=
